<?xml version="1.0" encoding="UTF-8" standalone="no"?>
<svg
   xmlns:dc="http://purl.org/dc/elements/1.1/"
   xmlns:cc="http://creativecommons.org/ns#"
   xmlns:rdf="http://www.w3.org/1999/02/22-rdf-syntax-ns#"
   xmlns:svg="http://www.w3.org/2000/svg"
   xmlns="http://www.w3.org/2000/svg"
   xmlns:xlink="http://www.w3.org/1999/xlink"
   xmlns:sodipodi="http://sodipodi.sourceforge.net/DTD/sodipodi-0.dtd"
   xmlns:inkscape="http://www.inkscape.org/namespaces/inkscape"
   width="210mm"
   height="297mm"
   viewBox="0 0 210 297"
   version="1.1"
   id="svg1631"
   inkscape:version="1.0.1 (3bc2e813f5, 2020-09-07)"
   sodipodi:docname="pattern.svg">
  <defs
     id="defs1625">
    <linearGradient
       inkscape:collect="always"
       id="linearGradient2280">
      <stop
         style="stop-color:#ffffff;stop-opacity:1"
         offset="0"
         id="stop2276" />
      <stop
         style="stop-color:#f6ffd5;stop-opacity:1"
         offset="1"
         id="stop2278" />
    </linearGradient>
    <linearGradient
       inkscape:collect="always"
       id="linearGradient2229">
      <stop
         style="stop-color:#0c0d00;stop-opacity:1"
         offset="0"
         id="stop2225" />
      <stop
         style="stop-color:#ff1400;stop-opacity:1"
         offset="1"
         id="stop2227" />
    </linearGradient>
    <linearGradient
       inkscape:collect="always"
       id="linearGradient1470">
      <stop
         style="stop-color:#ff4c00;stop-opacity:1"
         offset="0"
         id="stop1466" />
      <stop
         style="stop-color:#ff0000;stop-opacity:1"
         offset="1"
         id="stop1468" />
    </linearGradient>
    <inkscape:path-effect
       effect="spiro"
       id="path-effect1416"
       is_visible="true"
       lpeversion="1" />
    <linearGradient
       inkscape:collect="always"
       id="linearGradient858">
      <stop
         style="stop-color:#ffcc00;stop-opacity:1"
         offset="0"
         id="stop854" />
      <stop
         style="stop-color:#ef7116;stop-opacity:1"
         offset="1"
         id="stop856" />
    </linearGradient>
    <rect
       x="136.07143"
       y="130.77976"
       width="228.29762"
       height="55.940476"
       id="rect836" />
    <linearGradient
       inkscape:collect="always"
       xlink:href="#linearGradient1470"
       id="linearGradient1472"
       x1="74.944397"
       y1="330.16046"
       x2="416.24524"
       y2="-15.191432"
       gradientUnits="userSpaceOnUse"
       gradientTransform="translate(-6.0765728,-78.995446)" />
    <linearGradient
       inkscape:collect="always"
       xlink:href="#linearGradient858"
       id="linearGradient1478"
       gradientUnits="userSpaceOnUse"
       gradientTransform="matrix(0.99999995,0,0.00563132,0.77034826,-1.1132066,9.1661427)"
       x1="-27.196608"
       y1="415.75613"
       x2="506.47046"
       y2="-20.393038" />
    <linearGradient
       inkscape:collect="always"
       xlink:href="#linearGradient2229"
       id="linearGradient2231"
       x1="-179.08504"
       y1="186.06023"
       x2="600.67267"
       y2="197.50101"
       gradientUnits="userSpaceOnUse" />
    <linearGradient
       inkscape:collect="always"
       xlink:href="#linearGradient2280"
       id="linearGradient2282"
       x1="-233.94806"
       y1="480.65692"
       x2="754.30524"
       y2="-170.14404"
       gradientUnits="userSpaceOnUse" />
  </defs>
  <sodipodi:namedview
     id="base"
     pagecolor="#ffffff"
     bordercolor="#666666"
     borderopacity="1.0"
     inkscape:pageopacity="0.0"
     inkscape:pageshadow="2"
     inkscape:zoom="0.13195079"
     inkscape:cx="396.85039"
     inkscape:cy="561.25984"
     inkscape:document-units="px"
     inkscape:current-layer="layer1"
     inkscape:document-rotation="0"
     showgrid="false"
     showborder="false"
     inkscape:window-width="1600"
     inkscape:window-height="837"
     inkscape:window-x="-8"
     inkscape:window-y="-8"
     inkscape:window-maximized="1"
     inkscape:snap-bbox="true"
     inkscape:bbox-nodes="true"
     inkscape:bbox-paths="true"
     inkscape:snap-bbox-midpoints="true"
     inkscape:snap-bbox-edge-midpoints="true"
     inkscape:snap-nodes="false" />
  <metadata
     id="metadata1628">
    <rdf:RDF>
      <cc:Work
         rdf:about="">
        <dc:format>image/svg+xml</dc:format>
        <dc:type
           rdf:resource="http://purl.org/dc/dcmitype/StillImage" />
        <dc:title />
      </cc:Work>
    </rdf:RDF>
  </metadata>
  <g
     inkscape:label="pattern"
     inkscape:groupmode="layer"
     id="layer1"
     style="display:inline;opacity:1">
    <path
       sodipodi:type="star"
       style="opacity:0.11859;mix-blend-mode:normal;fill:none;fill-opacity:1;stroke:url(#linearGradient2231);stroke-width:0.648493;stroke-linecap:round;stroke-miterlimit:4;stroke-dasharray:none;stroke-opacity:1;paint-order:stroke fill markers"
       id="path2054"
       sodipodi:sides="56"
       sodipodi:cx="242.41873"
       sodipodi:cy="197.4454"
       sodipodi:r1="44.44117"
       sodipodi:r2="177.76468"
       sodipodi:arg1="0.82838242"
       sodipodi:arg2="0.88448229"
       inkscape:flatsided="false"
       inkscape:rounded="6.87"
       inkscape:randomized="0"
       d="M 272.46401,230.19138 C -402.90227,849.85734 1064.1152,-245.86117 355.06645,334.96185 -353.9823,915.78488 1009.109,-306.80312 268.6087,233.34948 -471.89158,773.50209 1108.5831,-151.07294 338.96118,346.70972 -430.66076,844.49238 1060.7461,-217.79044 264.42405,236.05607 -531.89803,689.90258 1142.1585,-51.90189 321.64184,356.5805 -498.87485,765.0629 1102.0923,-123.55593 259.96266,238.27711 -582.167,600.11015 1164.4192,50.40485 303.32623,364.45007 -557.76675,678.49529 1132.6276,-25.284633 255.28064,239.98467 -622.06633,505.25396 1175.0852,154.56071 284.24466,370.21945 -606.59585,585.8782 1151.968,75.787618 250.43689,241.15726 -651.09425,406.52691 1174.0223,259.25587 264.63712,373.81611 -644.7481,488.37634 1159.8703,178.38979 245.49229,241.78016 -668.88573,305.17054 1161.244,363.17373 244.75016,375.19479 -671.74371,387.21586 1156.2351,281.23159 240.50905,241.84552 -675.21703,202.45946 1136.911,465.00745 224.83388,374.33818 -687.2432,283.66891 1141.1082,383.01973 235.54982,241.35253 -670.00852,99.685324 1101.3291,563.47643 205.13874,371.25704 -691.05165,179.03764 1114.6797,482.47417 230.67697,240.30738 -653.32572,-1.8594208 1054.946,657.34236 185.91242,365.99011 -683.12117,74.637862 1077.282,578.34421 225.95178,238.72321 -625.3784,-100.89779 998.34489,745.42482 167.3967,358.60364 -663.55148,-28.21754 1029.3854,669.42422 221.43368,236.61995 -586.51804,-196.18432 932.23756,826.61611 149.82443,349.19051 -632.5887,-128.2351 971.59225,754.56883 217.17947,234.02405 -537.23331,-286.52073 857.45535,899.89522 133.41658,337.86909 -590.62219,-224.15704 904.62933,832.70729 213.24266,230.96815 -478.14401,-370.77099 774.93871,964.34062 118.3795,324.78177 -538.17971,-314.77708 829.33872,902.85695 209.67276,227.49068 -409.99321,-447.87559 685.72531,1019.1419 104.90228,310.09312 -475.92074,-398.95563 746.66726,964.13566 206.51465,223.63538 -333.63795,-516.86491 590.93708,1063.6098 93.154415,293.98786 -404.62825,-475.63409 657.65457,1015.7728 203.80806,219.45072 -250.03845,-576.87136 491.76603,1097.1852 83.283633,276.66852 -325.19876,-543.84818 563.42006,1057.119 201.58703,214.98933 -160.24601,-627.14033 389.45929,1119.4459 75.414067,258.3529 -238.63115,-602.74008 465.14877,1087.6543 199.87947,210.30732 -65.389829,-667.03966 285.30343,1130.1118 69.644681,239.27134 -146.01406,-651.56918 364.07652,1106.9947 198.70687,205.46356 33.337224,-696.06758 180.60827,1129.049 66.04803,219.66379 -48.512207,-689.72142 261.47435,1114.897 198.08397,200.51897 134.6936,-713.85906 76.690409,1116.2707 64.669342,199.77683 52.648275,-716.71704 158.63255,1111.2618 198.01861,195.53572 237.40468,-720.19036 -25.143318,1091.9376 65.525956,179.86055 156.19523,-732.21652 56.844401,1096.1348 198.51161,190.57649 340.17881,-714.98185 -123.6123,1056.3558 68.607099,160.16542 260.8265,-736.02497 -42.610038,1069.7063 199.55676,185.70365 441.72356,-698.29904 -217.47822,1009.9727 73.874025,140.9391 365.22627,-728.09449 -138.48007,1032.3086 201.14093,180.97846 540.76193,-670.35173 -305.56068,953.37156 81.260498,122.42338 468.08168,-708.52481 -229.56009,984.41206 203.24419,176.46035 636.04846,-631.49136 -386.75198,887.26423 90.673629,104.8511 568.09923,-677.56203 -314.70469,926.61892 205.84009,172.20614 726.38487,-582.20664 -460.03109,812.48202 101.99504,88.443254 664.02117,-635.59552 -392.84315,859.656 208.89599,168.26933 810.63512,-523.11733 -524.47648,729.96538 115.08237,73.406172 754.64121,-583.15303 -462.99282,784.36539 212.37345,164.69943 887.73973,-454.96654 -579.27773,640.75198 129.77102,59.928955 838.81976,-520.89407 -524.27153,701.69393 216.22876,161.54132 956.72905,-378.61128 -623.74566,545.96375 145.87628,48.181088 915.49822,-449.60158 -575.90866,612.68125 220.41342,158.83474 1016.7355,-295.01178 -657.32107,446.7927 163.19562,38.310305 983.71231,-370.17209 -617.25486,518.44673 224.87481,156.6137 1067.0045,-205.21934 -679.58174,344.48596 181.51124,30.440739 1042.6042,-283.60448 -647.79015,420.17544 229.55682,154.90614 1106.9038,-110.36316 -690.24771,240.3301 200.5928,24.671354 1091.4333,-190.98739 -667.13056,319.10319 234.40058,153.73354 1135.9317,-11.636104 -689.18486,135.63494 220.20035,21.074702 1129.5856,-93.485535 -675.03285,216.50102 239.34517,153.11065 1153.7232,89.72027 -676.40656,31.717082 240.08731,19.696014 1156.5812,7.6749469 -671.39766,113.65922 244.32841,153.04528 1160.0545,192.43135 -652.07349,-70.116646 260.00358,20.552628 1172.0807,111.2219 -656.2707,11.871074 249.28764,153.53828 1154.846,295.20548 -616.49167,-168.58563 279.69872,23.633772 1175.8891,215.85317 -629.8422,-87.583365 254.16049,154.58343 1138.1632,396.75023 -570.10855,-262.45155 298.92504,28.900697 1167.9586,320.25295 -592.44451,-183.4534 258.88568,156.1676 1110.2159,495.7886 -513.50743,-350.53401 317.44076,36.28717 1148.3889,423.10835 -544.54793,-274.53342 263.40379,158.27086 1071.3555,591.07513 -447.40009,-431.7253 335.01303,45.700301 1117.4262,523.12591 -486.75479,-359.67802 267.65799,160.86676 1022.0708,681.41154 -372.61789,-505.00441 351.42088,57.021715 1075.4597,619.04784 -419.79186,-437.81648 271.5948,163.92266 962.98147,765.6618 -290.10124,-569.44981 366.45796,70.109038 1023.0172,709.66789 -344.50126,-507.96615 275.16471,167.40013 894.83067,842.7664 -200.88785,-624.25105 379.93518,84.79769 960.75821,793.84643 -261.82979,-569.24486 278.32281,171.25543 818.47542,911.75572 -106.09961,-668.71899 391.68305,100.90295 889.46571,870.52489 -172.81711,-620.88199 281.0294,175.44009 734.87591,971.76217 -6.9285623,-702.2944 401.55383,118.22229 810.03622,938.73899 -78.582597,-662.22818 283.25044,179.90148 645.08347,1022.0311 95.378177,-724.55507 409.4234,136.53791 723.46862,997.63088 19.688694,-692.76348 284.95799,184.58349 550.22729,1061.9305 199.53404,-735.22104 415.19278,155.61947 630.85153,1046.46 120.76095,-712.10389 286.13059,189.42725 c 165.36965,901.53115 18.09861,-923.58544 132.65884,-14.20023 114.56024,909.38518 -195.42632,-895.2332 -132.03594,19.14482 63.39038,914.37806 121.39356,-915.75173 133.41463,0.74214 12.02107,916.49382 -93.9632,-911.48497 -133.34927,4.24111 -39.38606,915.72611 223.16193,-896.40191 132.49266,15.67517 -90.66928,912.07704 8.68155,-916.27429 -132.98565,-10.71594 C 144.65865,1109.8727 608.44976,-661.465 416.23036,234.72539 224.01097,1130.9158 527.4475,-674.81553 285.2807,209.18716 43.113907,1093.1899 702.31569,-615.08188 410.96344,253.95171 119.61119,1122.9853 623.31754,-637.41784 283.69654,213.91235 -55.924464,1065.2425 790.39814,-558.48075 403.57697,272.46743 16.755788,1103.4156 714.39755,-589.52126 281.59328,218.43046 -151.211,1026.3822 871.58944,-492.37342 394.16383,290.03971 -83.261771,1072.4528 799.54216,-531.72811 278.99738,222.68467 c -520.54479,754.41278 665.87117,-640.27589 103.84504,83.76288 -562.02613,724.03875 494.83819,-771.21274 -106.90094,-79.82607 -601.73914,691.38666 733.37242,-561.69605 93.81362,94.86316 -639.55885,656.5592 578.07518,-710.95923 -97.29109,-91.29326 z"
       inkscape:transform-center-x="2.0295512"
       inkscape:transform-center-y="10.003845"
       transform="matrix(-0.58266196,-0.1985372,0.1985372,-0.58266196,207.04792,311.67306)"
       inkscape:export-xdpi="96"
       inkscape:export-ydpi="96" />
    <text
       xml:space="preserve"
       id="text834"
       style="font-style:normal;font-weight:normal;font-size:10.5833px;line-height:1.25;font-family:sans-serif;white-space:pre;shape-inside:url(#rect836);opacity:0.50641;fill:#000000;fill-opacity:1;stroke:none;"
       inkscape:export-xdpi="96"
       inkscape:export-ydpi="96"
       transform="matrix(0.53143183,0,0,0.53143183,-632.7193,-137.75811)" />
    <use
       x="0"
       y="0"
       xlink:href="#path2054"
       inkscape:transform-center-x="0.46621305"
       inkscape:transform-center-y="2.2980163"
       id="use2266"
       width="100%"
       height="100%"
       transform="matrix(0.44713766,0,0,0.44713766,58.050549,82.100056)"
       inkscape:export-xdpi="96"
       inkscape:export-ydpi="96"
       style="opacity:1" />
    <use
       x="0"
       y="0"
       xlink:href="#use2266"
       inkscape:transform-center-x="0.46621305"
       inkscape:transform-center-y="2.2980183"
       id="use2268"
       width="100%"
       height="100%"
       inkscape:export-xdpi="96"
       inkscape:export-ydpi="96"
       style="opacity:0.50641" />
    <use
       x="0"
       y="0"
       xlink:href="#use2268"
       inkscape:transform-center-x="0.46621471"
       inkscape:transform-center-y="2.2980183"
       id="use2270"
       width="100%"
       height="100%"
       inkscape:export-xdpi="96"
       inkscape:export-ydpi="96"
       style="opacity:1" />
    <use
       x="0"
       y="0"
       xlink:href="#use2266"
       inkscape:transform-center-x="0.46621471"
       inkscape:transform-center-y="2.2980163"
       id="use2272"
       width="100%"
       height="100%"
       inkscape:export-xdpi="96"
       inkscape:export-ydpi="96"
       style="opacity:0.50641" />
  </g>
</svg>
